<mxfile host="Electron" modified="2023-09-27T06:55:00.429Z" agent="Mozilla/5.0 (Macintosh; Intel Mac OS X 10_15_7) AppleWebKit/537.36 (KHTML, like Gecko) draw.io/21.6.8 Chrome/114.0.5735.289 Electron/25.5.0 Safari/537.36" etag="oyVid66zfEGFHREq9H0a" version="21.6.8" type="device">
  <diagram id="a6eFwLFaf84fWAjscbE_" name="第 1 页">
    <mxGraphModel dx="1707" dy="1164" grid="1" gridSize="10" guides="1" tooltips="1" connect="1" arrows="1" fold="1" page="1" pageScale="1" pageWidth="827" pageHeight="1169" math="0" shadow="0">
      <root>
        <mxCell id="0" />
        <mxCell id="1" parent="0" />
        <mxCell id="NKYCaUZf26EfjrLhenBL-3" style="edgeStyle=orthogonalEdgeStyle;rounded=0;orthogonalLoop=1;jettySize=auto;html=1;exitX=0;exitY=0.5;exitDx=0;exitDy=0;entryX=1;entryY=0.5;entryDx=0;entryDy=0;fillColor=#d5e8d4;strokeColor=#82b366;strokeWidth=3;" edge="1" parent="1" source="NKYCaUZf26EfjrLhenBL-1" target="NKYCaUZf26EfjrLhenBL-2">
          <mxGeometry relative="1" as="geometry" />
        </mxCell>
        <mxCell id="NKYCaUZf26EfjrLhenBL-90" value="1 VS n" style="edgeLabel;html=1;align=center;verticalAlign=middle;resizable=0;points=[];" vertex="1" connectable="0" parent="NKYCaUZf26EfjrLhenBL-3">
          <mxGeometry x="0.4571" relative="1" as="geometry">
            <mxPoint y="-1" as="offset" />
          </mxGeometry>
        </mxCell>
        <mxCell id="NKYCaUZf26EfjrLhenBL-8" style="edgeStyle=orthogonalEdgeStyle;rounded=0;orthogonalLoop=1;jettySize=auto;html=1;exitX=1;exitY=0.5;exitDx=0;exitDy=0;entryX=0;entryY=0.5;entryDx=0;entryDy=0;fillColor=#d5e8d4;strokeColor=#000000;" edge="1" parent="1" source="NKYCaUZf26EfjrLhenBL-1" target="NKYCaUZf26EfjrLhenBL-4">
          <mxGeometry relative="1" as="geometry" />
        </mxCell>
        <mxCell id="NKYCaUZf26EfjrLhenBL-14" value="HAS_ROLE" style="edgeLabel;html=1;align=center;verticalAlign=middle;resizable=0;points=[];" vertex="1" connectable="0" parent="NKYCaUZf26EfjrLhenBL-8">
          <mxGeometry x="-0.02" y="2" relative="1" as="geometry">
            <mxPoint as="offset" />
          </mxGeometry>
        </mxCell>
        <mxCell id="NKYCaUZf26EfjrLhenBL-9" style="edgeStyle=orthogonalEdgeStyle;rounded=0;orthogonalLoop=1;jettySize=auto;html=1;exitX=1;exitY=0;exitDx=0;exitDy=0;entryX=0;entryY=0.5;entryDx=0;entryDy=0;strokeColor=#000000;" edge="1" parent="1" source="NKYCaUZf26EfjrLhenBL-1" target="NKYCaUZf26EfjrLhenBL-6">
          <mxGeometry relative="1" as="geometry" />
        </mxCell>
        <mxCell id="NKYCaUZf26EfjrLhenBL-12" value="HAS_ROLE&lt;br&gt;1 vs 1" style="edgeLabel;html=1;align=center;verticalAlign=middle;resizable=0;points=[];" vertex="1" connectable="0" parent="NKYCaUZf26EfjrLhenBL-9">
          <mxGeometry x="0.2823" y="1" relative="1" as="geometry">
            <mxPoint as="offset" />
          </mxGeometry>
        </mxCell>
        <mxCell id="NKYCaUZf26EfjrLhenBL-10" style="edgeStyle=orthogonalEdgeStyle;rounded=0;orthogonalLoop=1;jettySize=auto;html=1;exitX=0.5;exitY=0;exitDx=0;exitDy=0;entryX=0;entryY=0.5;entryDx=0;entryDy=0;fillColor=#d5e8d4;strokeColor=#82b366;strokeWidth=3;" edge="1" parent="1" source="NKYCaUZf26EfjrLhenBL-1" target="NKYCaUZf26EfjrLhenBL-7">
          <mxGeometry relative="1" as="geometry" />
        </mxCell>
        <mxCell id="NKYCaUZf26EfjrLhenBL-13" value="HAS_ROLE&lt;br&gt;1 vs n" style="edgeLabel;html=1;align=center;verticalAlign=middle;resizable=0;points=[];" vertex="1" connectable="0" parent="NKYCaUZf26EfjrLhenBL-10">
          <mxGeometry x="-0.2882" y="1" relative="1" as="geometry">
            <mxPoint as="offset" />
          </mxGeometry>
        </mxCell>
        <mxCell id="NKYCaUZf26EfjrLhenBL-11" style="edgeStyle=orthogonalEdgeStyle;rounded=0;orthogonalLoop=1;jettySize=auto;html=1;exitX=0.5;exitY=1;exitDx=0;exitDy=0;entryX=0;entryY=0.5;entryDx=0;entryDy=0;fillColor=#d5e8d4;strokeColor=#000000;" edge="1" parent="1" source="NKYCaUZf26EfjrLhenBL-1" target="NKYCaUZf26EfjrLhenBL-5">
          <mxGeometry relative="1" as="geometry" />
        </mxCell>
        <mxCell id="NKYCaUZf26EfjrLhenBL-15" value="HAS_ROLE" style="edgeLabel;html=1;align=center;verticalAlign=middle;resizable=0;points=[];" vertex="1" connectable="0" parent="NKYCaUZf26EfjrLhenBL-11">
          <mxGeometry x="0.4818" y="1" relative="1" as="geometry">
            <mxPoint as="offset" />
          </mxGeometry>
        </mxCell>
        <mxCell id="NKYCaUZf26EfjrLhenBL-1" value="Person" style="ellipse;whiteSpace=wrap;html=1;aspect=fixed;" vertex="1" parent="1">
          <mxGeometry x="370" y="520" width="80" height="80" as="geometry" />
        </mxCell>
        <mxCell id="NKYCaUZf26EfjrLhenBL-2" value="PERSON_ID&lt;br&gt;证件号+证件类型" style="ellipse;whiteSpace=wrap;html=1;aspect=fixed;" vertex="1" parent="1">
          <mxGeometry x="150" y="520" width="80" height="80" as="geometry" />
        </mxCell>
        <mxCell id="NKYCaUZf26EfjrLhenBL-4" value="Insured&lt;br&gt;&lt;font color=&quot;#0000ff&quot;&gt;cust_id&lt;/font&gt;" style="ellipse;whiteSpace=wrap;html=1;aspect=fixed;" vertex="1" parent="1">
          <mxGeometry x="550" y="520" width="80" height="80" as="geometry" />
        </mxCell>
        <mxCell id="NKYCaUZf26EfjrLhenBL-5" value="Applicant&lt;br&gt;&lt;font color=&quot;#0000ff&quot;&gt;cust_id&lt;/font&gt;" style="ellipse;whiteSpace=wrap;html=1;aspect=fixed;" vertex="1" parent="1">
          <mxGeometry x="550" y="640" width="80" height="80" as="geometry" />
        </mxCell>
        <mxCell id="NKYCaUZf26EfjrLhenBL-88" style="edgeStyle=orthogonalEdgeStyle;rounded=0;orthogonalLoop=1;jettySize=auto;html=1;exitX=1;exitY=0.5;exitDx=0;exitDy=0;entryX=0;entryY=0;entryDx=0;entryDy=0;endArrow=none;endFill=0;startArrow=classic;startFill=1;fillColor=#d5e8d4;strokeColor=#82b366;strokeWidth=3;" edge="1" parent="1" source="NKYCaUZf26EfjrLhenBL-6" target="NKYCaUZf26EfjrLhenBL-19">
          <mxGeometry relative="1" as="geometry">
            <Array as="points">
              <mxPoint x="710" y="440" />
              <mxPoint x="710" y="532" />
            </Array>
          </mxGeometry>
        </mxCell>
        <mxCell id="NKYCaUZf26EfjrLhenBL-6" value="Beneficial&lt;br&gt;&lt;font color=&quot;#0000ff&quot;&gt;cust_id&lt;/font&gt;" style="ellipse;whiteSpace=wrap;html=1;aspect=fixed;" vertex="1" parent="1">
          <mxGeometry x="550" y="400" width="80" height="80" as="geometry" />
        </mxCell>
        <mxCell id="NKYCaUZf26EfjrLhenBL-68" style="edgeStyle=orthogonalEdgeStyle;rounded=0;orthogonalLoop=1;jettySize=auto;html=1;exitX=0.5;exitY=0;exitDx=0;exitDy=0;entryX=0;entryY=0.5;entryDx=0;entryDy=0;fillColor=#d5e8d4;strokeColor=#82b366;strokeWidth=3;" edge="1" parent="1" source="NKYCaUZf26EfjrLhenBL-7" target="NKYCaUZf26EfjrLhenBL-63">
          <mxGeometry relative="1" as="geometry">
            <Array as="points">
              <mxPoint x="590" y="208" />
              <mxPoint x="140" y="208" />
              <mxPoint x="140" y="95" />
            </Array>
          </mxGeometry>
        </mxCell>
        <mxCell id="NKYCaUZf26EfjrLhenBL-69" value="WORK_IN&lt;br&gt;1 VS n" style="edgeLabel;html=1;align=center;verticalAlign=middle;resizable=0;points=[];" vertex="1" connectable="0" parent="NKYCaUZf26EfjrLhenBL-68">
          <mxGeometry x="0.4744" relative="1" as="geometry">
            <mxPoint as="offset" />
          </mxGeometry>
        </mxCell>
        <mxCell id="NKYCaUZf26EfjrLhenBL-89" value="Q: 投保人每次入职对应的组/分公司" style="edgeLabel;html=1;align=center;verticalAlign=middle;resizable=0;points=[];fontColor=#FF0000;" vertex="1" connectable="0" parent="NKYCaUZf26EfjrLhenBL-68">
          <mxGeometry x="-0.0565" y="-1" relative="1" as="geometry">
            <mxPoint as="offset" />
          </mxGeometry>
        </mxCell>
        <mxCell id="NKYCaUZf26EfjrLhenBL-97" style="edgeStyle=orthogonalEdgeStyle;rounded=0;orthogonalLoop=1;jettySize=auto;html=1;exitX=1;exitY=0.5;exitDx=0;exitDy=0;entryX=0;entryY=1;entryDx=0;entryDy=0;" edge="1" parent="1" source="NKYCaUZf26EfjrLhenBL-7" target="NKYCaUZf26EfjrLhenBL-16">
          <mxGeometry relative="1" as="geometry">
            <Array as="points">
              <mxPoint x="720" y="320" />
              <mxPoint x="720" y="468" />
            </Array>
          </mxGeometry>
        </mxCell>
        <mxCell id="NKYCaUZf26EfjrLhenBL-98" value="SELL / SERVE" style="edgeLabel;html=1;align=center;verticalAlign=middle;resizable=0;points=[];" vertex="1" connectable="0" parent="NKYCaUZf26EfjrLhenBL-97">
          <mxGeometry x="-0.3768" relative="1" as="geometry">
            <mxPoint as="offset" />
          </mxGeometry>
        </mxCell>
        <mxCell id="NKYCaUZf26EfjrLhenBL-7" value="Agent&lt;br&gt;&lt;font color=&quot;#0000ff&quot;&gt;agent_id&lt;/font&gt;" style="ellipse;whiteSpace=wrap;html=1;aspect=fixed;" vertex="1" parent="1">
          <mxGeometry x="550" y="280" width="80" height="80" as="geometry" />
        </mxCell>
        <mxCell id="NKYCaUZf26EfjrLhenBL-20" style="edgeStyle=orthogonalEdgeStyle;rounded=0;orthogonalLoop=1;jettySize=auto;html=1;exitX=0.5;exitY=1;exitDx=0;exitDy=0;entryX=0.5;entryY=0;entryDx=0;entryDy=0;" edge="1" parent="1" source="NKYCaUZf26EfjrLhenBL-16" target="NKYCaUZf26EfjrLhenBL-19">
          <mxGeometry relative="1" as="geometry" />
        </mxCell>
        <mxCell id="NKYCaUZf26EfjrLhenBL-16" value="Policy" style="ellipse;whiteSpace=wrap;html=1;aspect=fixed;" vertex="1" parent="1">
          <mxGeometry x="900" y="400" width="80" height="80" as="geometry" />
        </mxCell>
        <mxCell id="NKYCaUZf26EfjrLhenBL-22" style="edgeStyle=orthogonalEdgeStyle;rounded=0;orthogonalLoop=1;jettySize=auto;html=1;exitX=0.5;exitY=1;exitDx=0;exitDy=0;entryX=0.5;entryY=0;entryDx=0;entryDy=0;" edge="1" parent="1" source="NKYCaUZf26EfjrLhenBL-17" target="NKYCaUZf26EfjrLhenBL-18">
          <mxGeometry relative="1" as="geometry" />
        </mxCell>
        <mxCell id="NKYCaUZf26EfjrLhenBL-17" value="Product" style="ellipse;whiteSpace=wrap;html=1;aspect=fixed;" vertex="1" parent="1">
          <mxGeometry x="1080" y="520" width="80" height="80" as="geometry" />
        </mxCell>
        <mxCell id="NKYCaUZf26EfjrLhenBL-18" value="Liability" style="ellipse;whiteSpace=wrap;html=1;aspect=fixed;" vertex="1" parent="1">
          <mxGeometry x="1080" y="640" width="80" height="80" as="geometry" />
        </mxCell>
        <mxCell id="NKYCaUZf26EfjrLhenBL-21" style="edgeStyle=orthogonalEdgeStyle;rounded=0;orthogonalLoop=1;jettySize=auto;html=1;exitX=1;exitY=0.5;exitDx=0;exitDy=0;entryX=0;entryY=0.5;entryDx=0;entryDy=0;" edge="1" parent="1" source="NKYCaUZf26EfjrLhenBL-19" target="NKYCaUZf26EfjrLhenBL-17">
          <mxGeometry relative="1" as="geometry" />
        </mxCell>
        <mxCell id="NKYCaUZf26EfjrLhenBL-23" style="edgeStyle=orthogonalEdgeStyle;rounded=0;orthogonalLoop=1;jettySize=auto;html=1;exitX=0;exitY=0.5;exitDx=0;exitDy=0;entryX=1;entryY=0.5;entryDx=0;entryDy=0;fillColor=#d5e8d4;strokeColor=#82b366;strokeWidth=3;" edge="1" parent="1" source="NKYCaUZf26EfjrLhenBL-19" target="NKYCaUZf26EfjrLhenBL-4">
          <mxGeometry relative="1" as="geometry" />
        </mxCell>
        <mxCell id="NKYCaUZf26EfjrLhenBL-24" value="MAIN_INSURED" style="edgeLabel;html=1;align=center;verticalAlign=middle;resizable=0;points=[];" vertex="1" connectable="0" parent="NKYCaUZf26EfjrLhenBL-23">
          <mxGeometry x="-0.0148" y="1" relative="1" as="geometry">
            <mxPoint as="offset" />
          </mxGeometry>
        </mxCell>
        <mxCell id="NKYCaUZf26EfjrLhenBL-25" style="edgeStyle=orthogonalEdgeStyle;rounded=0;orthogonalLoop=1;jettySize=auto;html=1;exitX=0;exitY=1;exitDx=0;exitDy=0;entryX=1;entryY=1;entryDx=0;entryDy=0;strokeWidth=3;fillColor=#d5e8d4;strokeColor=#82b366;" edge="1" parent="1" source="NKYCaUZf26EfjrLhenBL-19" target="NKYCaUZf26EfjrLhenBL-4">
          <mxGeometry relative="1" as="geometry" />
        </mxCell>
        <mxCell id="NKYCaUZf26EfjrLhenBL-26" value="SECOND_INSURED" style="edgeLabel;html=1;align=center;verticalAlign=middle;resizable=0;points=[];" vertex="1" connectable="0" parent="NKYCaUZf26EfjrLhenBL-25">
          <mxGeometry x="0.0341" y="1" relative="1" as="geometry">
            <mxPoint as="offset" />
          </mxGeometry>
        </mxCell>
        <mxCell id="NKYCaUZf26EfjrLhenBL-27" style="edgeStyle=orthogonalEdgeStyle;rounded=0;orthogonalLoop=1;jettySize=auto;html=1;exitX=0.5;exitY=1;exitDx=0;exitDy=0;entryX=1;entryY=0.5;entryDx=0;entryDy=0;fillColor=#d5e8d4;strokeColor=#82b366;strokeWidth=3;" edge="1" parent="1" source="NKYCaUZf26EfjrLhenBL-19" target="NKYCaUZf26EfjrLhenBL-5">
          <mxGeometry relative="1" as="geometry" />
        </mxCell>
        <mxCell id="NKYCaUZf26EfjrLhenBL-28" value="APPLICANT" style="edgeLabel;html=1;align=center;verticalAlign=middle;resizable=0;points=[];" vertex="1" connectable="0" parent="NKYCaUZf26EfjrLhenBL-27">
          <mxGeometry x="0.2667" relative="1" as="geometry">
            <mxPoint as="offset" />
          </mxGeometry>
        </mxCell>
        <mxCell id="NKYCaUZf26EfjrLhenBL-58" style="edgeStyle=orthogonalEdgeStyle;rounded=0;orthogonalLoop=1;jettySize=auto;html=1;exitX=1;exitY=1;exitDx=0;exitDy=0;entryX=0;entryY=0.5;entryDx=0;entryDy=0;" edge="1" parent="1" source="NKYCaUZf26EfjrLhenBL-19" target="NKYCaUZf26EfjrLhenBL-18">
          <mxGeometry relative="1" as="geometry">
            <Array as="points">
              <mxPoint x="968" y="680" />
            </Array>
          </mxGeometry>
        </mxCell>
        <mxCell id="NKYCaUZf26EfjrLhenBL-19" value="Config" style="ellipse;whiteSpace=wrap;html=1;aspect=fixed;" vertex="1" parent="1">
          <mxGeometry x="900" y="520" width="80" height="80" as="geometry" />
        </mxCell>
        <mxCell id="NKYCaUZf26EfjrLhenBL-30" style="edgeStyle=orthogonalEdgeStyle;rounded=0;orthogonalLoop=1;jettySize=auto;html=1;exitX=0;exitY=0.5;exitDx=0;exitDy=0;entryX=1;entryY=0;entryDx=0;entryDy=0;" edge="1" parent="1" source="NKYCaUZf26EfjrLhenBL-29" target="NKYCaUZf26EfjrLhenBL-4">
          <mxGeometry relative="1" as="geometry">
            <Array as="points">
              <mxPoint x="1290" y="440" />
              <mxPoint x="1290" y="290" />
              <mxPoint x="690" y="290" />
              <mxPoint x="690" y="532" />
            </Array>
          </mxGeometry>
        </mxCell>
        <mxCell id="NKYCaUZf26EfjrLhenBL-99" value="COVER_INSURED" style="edgeLabel;html=1;align=center;verticalAlign=middle;resizable=0;points=[];" vertex="1" connectable="0" parent="NKYCaUZf26EfjrLhenBL-30">
          <mxGeometry x="0.073" y="-1" relative="1" as="geometry">
            <mxPoint as="offset" />
          </mxGeometry>
        </mxCell>
        <mxCell id="NKYCaUZf26EfjrLhenBL-32" style="edgeStyle=orthogonalEdgeStyle;rounded=0;orthogonalLoop=1;jettySize=auto;html=1;exitX=1;exitY=0.5;exitDx=0;exitDy=0;entryX=0;entryY=0.5;entryDx=0;entryDy=0;startArrow=classic;startFill=1;" edge="1" parent="1" source="NKYCaUZf26EfjrLhenBL-29" target="NKYCaUZf26EfjrLhenBL-31">
          <mxGeometry relative="1" as="geometry" />
        </mxCell>
        <mxCell id="NKYCaUZf26EfjrLhenBL-92" value="n VS n" style="edgeLabel;html=1;align=center;verticalAlign=middle;resizable=0;points=[];" vertex="1" connectable="0" parent="NKYCaUZf26EfjrLhenBL-32">
          <mxGeometry x="-0.0286" y="1" relative="1" as="geometry">
            <mxPoint as="offset" />
          </mxGeometry>
        </mxCell>
        <mxCell id="NKYCaUZf26EfjrLhenBL-61" style="edgeStyle=orthogonalEdgeStyle;rounded=0;orthogonalLoop=1;jettySize=auto;html=1;exitX=0.5;exitY=1;exitDx=0;exitDy=0;" edge="1" parent="1" source="NKYCaUZf26EfjrLhenBL-29" target="NKYCaUZf26EfjrLhenBL-59">
          <mxGeometry relative="1" as="geometry" />
        </mxCell>
        <mxCell id="NKYCaUZf26EfjrLhenBL-94" style="edgeStyle=orthogonalEdgeStyle;rounded=0;orthogonalLoop=1;jettySize=auto;html=1;exitX=0;exitY=0;exitDx=0;exitDy=0;entryX=1;entryY=0;entryDx=0;entryDy=0;" edge="1" parent="1" source="NKYCaUZf26EfjrLhenBL-29" target="NKYCaUZf26EfjrLhenBL-6">
          <mxGeometry relative="1" as="geometry">
            <Array as="points">
              <mxPoint x="1320" y="412" />
              <mxPoint x="1320" y="270" />
              <mxPoint x="670" y="270" />
              <mxPoint x="670" y="412" />
            </Array>
          </mxGeometry>
        </mxCell>
        <mxCell id="NKYCaUZf26EfjrLhenBL-29" value="Claim" style="ellipse;whiteSpace=wrap;html=1;aspect=fixed;" vertex="1" parent="1">
          <mxGeometry x="1550" y="400" width="80" height="80" as="geometry" />
        </mxCell>
        <mxCell id="NKYCaUZf26EfjrLhenBL-42" style="edgeStyle=orthogonalEdgeStyle;rounded=0;orthogonalLoop=1;jettySize=auto;html=1;exitX=0.5;exitY=1;exitDx=0;exitDy=0;entryX=0.5;entryY=0;entryDx=0;entryDy=0;" edge="1" parent="1" source="NKYCaUZf26EfjrLhenBL-31" target="NKYCaUZf26EfjrLhenBL-41">
          <mxGeometry relative="1" as="geometry" />
        </mxCell>
        <mxCell id="NKYCaUZf26EfjrLhenBL-44" style="edgeStyle=orthogonalEdgeStyle;rounded=0;orthogonalLoop=1;jettySize=auto;html=1;exitX=1;exitY=0.5;exitDx=0;exitDy=0;entryX=0;entryY=0.5;entryDx=0;entryDy=0;" edge="1" parent="1" source="NKYCaUZf26EfjrLhenBL-31" target="NKYCaUZf26EfjrLhenBL-43">
          <mxGeometry relative="1" as="geometry" />
        </mxCell>
        <mxCell id="NKYCaUZf26EfjrLhenBL-48" style="edgeStyle=orthogonalEdgeStyle;rounded=0;orthogonalLoop=1;jettySize=auto;html=1;exitX=0.5;exitY=0;exitDx=0;exitDy=0;entryX=0.5;entryY=1;entryDx=0;entryDy=0;" edge="1" parent="1" source="NKYCaUZf26EfjrLhenBL-31" target="NKYCaUZf26EfjrLhenBL-49">
          <mxGeometry relative="1" as="geometry">
            <mxPoint x="1740" y="310" as="targetPoint" />
          </mxGeometry>
        </mxCell>
        <mxCell id="NKYCaUZf26EfjrLhenBL-31" value="Admission" style="ellipse;whiteSpace=wrap;html=1;aspect=fixed;" vertex="1" parent="1">
          <mxGeometry x="1700" y="400" width="80" height="80" as="geometry" />
        </mxCell>
        <mxCell id="NKYCaUZf26EfjrLhenBL-37" style="edgeStyle=orthogonalEdgeStyle;rounded=0;orthogonalLoop=1;jettySize=auto;html=1;exitX=1;exitY=0.5;exitDx=0;exitDy=0;" edge="1" parent="1" source="NKYCaUZf26EfjrLhenBL-33" target="NKYCaUZf26EfjrLhenBL-29">
          <mxGeometry relative="1" as="geometry" />
        </mxCell>
        <mxCell id="NKYCaUZf26EfjrLhenBL-38" style="edgeStyle=orthogonalEdgeStyle;rounded=0;orthogonalLoop=1;jettySize=auto;html=1;exitX=0.5;exitY=1;exitDx=0;exitDy=0;entryX=0.5;entryY=0;entryDx=0;entryDy=0;" edge="1" parent="1" source="NKYCaUZf26EfjrLhenBL-33" target="NKYCaUZf26EfjrLhenBL-17">
          <mxGeometry relative="1" as="geometry" />
        </mxCell>
        <mxCell id="NKYCaUZf26EfjrLhenBL-39" style="edgeStyle=orthogonalEdgeStyle;rounded=0;orthogonalLoop=1;jettySize=auto;html=1;exitX=0;exitY=0.5;exitDx=0;exitDy=0;" edge="1" parent="1" source="NKYCaUZf26EfjrLhenBL-33" target="NKYCaUZf26EfjrLhenBL-16">
          <mxGeometry relative="1" as="geometry" />
        </mxCell>
        <mxCell id="NKYCaUZf26EfjrLhenBL-40" style="edgeStyle=orthogonalEdgeStyle;rounded=0;orthogonalLoop=1;jettySize=auto;html=1;exitX=1;exitY=1;exitDx=0;exitDy=0;entryX=1;entryY=0.5;entryDx=0;entryDy=0;" edge="1" parent="1" source="NKYCaUZf26EfjrLhenBL-33" target="NKYCaUZf26EfjrLhenBL-18">
          <mxGeometry relative="1" as="geometry">
            <Array as="points">
              <mxPoint x="1180" y="188" />
              <mxPoint x="1180" y="680" />
            </Array>
          </mxGeometry>
        </mxCell>
        <mxCell id="NKYCaUZf26EfjrLhenBL-100" style="edgeStyle=orthogonalEdgeStyle;rounded=0;orthogonalLoop=1;jettySize=auto;html=1;exitX=0;exitY=1;exitDx=0;exitDy=0;entryX=1;entryY=0;entryDx=0;entryDy=0;" edge="1" parent="1" source="NKYCaUZf26EfjrLhenBL-33" target="NKYCaUZf26EfjrLhenBL-19">
          <mxGeometry relative="1" as="geometry">
            <Array as="points">
              <mxPoint x="1092" y="532" />
            </Array>
          </mxGeometry>
        </mxCell>
        <mxCell id="NKYCaUZf26EfjrLhenBL-33" value="LiabilityPay" style="ellipse;whiteSpace=wrap;html=1;aspect=fixed;" vertex="1" parent="1">
          <mxGeometry x="1080" y="120" width="80" height="80" as="geometry" />
        </mxCell>
        <mxCell id="NKYCaUZf26EfjrLhenBL-41" value="Diagnosis" style="ellipse;whiteSpace=wrap;html=1;aspect=fixed;" vertex="1" parent="1">
          <mxGeometry x="1700" y="570" width="80" height="80" as="geometry" />
        </mxCell>
        <mxCell id="NKYCaUZf26EfjrLhenBL-43" value="Surgery" style="ellipse;whiteSpace=wrap;html=1;aspect=fixed;" vertex="1" parent="1">
          <mxGeometry x="1870" y="400" width="80" height="80" as="geometry" />
        </mxCell>
        <mxCell id="NKYCaUZf26EfjrLhenBL-46" value="Hospital" style="ellipse;whiteSpace=wrap;html=1;aspect=fixed;" vertex="1" parent="1">
          <mxGeometry x="1870" y="570" width="80" height="80" as="geometry" />
        </mxCell>
        <mxCell id="NKYCaUZf26EfjrLhenBL-47" value="" style="endArrow=classic;html=1;rounded=0;entryX=0;entryY=0;entryDx=0;entryDy=0;exitX=1;exitY=1;exitDx=0;exitDy=0;" edge="1" parent="1" source="NKYCaUZf26EfjrLhenBL-31" target="NKYCaUZf26EfjrLhenBL-46">
          <mxGeometry width="50" height="50" relative="1" as="geometry">
            <mxPoint x="1320" y="580" as="sourcePoint" />
            <mxPoint x="1370" y="530" as="targetPoint" />
          </mxGeometry>
        </mxCell>
        <mxCell id="NKYCaUZf26EfjrLhenBL-53" style="edgeStyle=orthogonalEdgeStyle;rounded=0;orthogonalLoop=1;jettySize=auto;html=1;exitX=1;exitY=0.5;exitDx=0;exitDy=0;" edge="1" parent="1" source="NKYCaUZf26EfjrLhenBL-49" target="NKYCaUZf26EfjrLhenBL-51">
          <mxGeometry relative="1" as="geometry" />
        </mxCell>
        <mxCell id="NKYCaUZf26EfjrLhenBL-54" style="edgeStyle=orthogonalEdgeStyle;rounded=0;orthogonalLoop=1;jettySize=auto;html=1;exitX=1;exitY=0.5;exitDx=0;exitDy=0;entryX=0;entryY=0.5;entryDx=0;entryDy=0;" edge="1" parent="1" source="NKYCaUZf26EfjrLhenBL-49" target="NKYCaUZf26EfjrLhenBL-52">
          <mxGeometry relative="1" as="geometry" />
        </mxCell>
        <mxCell id="NKYCaUZf26EfjrLhenBL-49" value="Invoice" style="ellipse;whiteSpace=wrap;html=1;aspect=fixed;" vertex="1" parent="1">
          <mxGeometry x="1700" y="100" width="80" height="80" as="geometry" />
        </mxCell>
        <mxCell id="NKYCaUZf26EfjrLhenBL-51" value="Item" style="ellipse;whiteSpace=wrap;html=1;aspect=fixed;" vertex="1" parent="1">
          <mxGeometry x="1870" y="100" width="80" height="80" as="geometry" />
        </mxCell>
        <mxCell id="NKYCaUZf26EfjrLhenBL-55" style="edgeStyle=orthogonalEdgeStyle;rounded=0;orthogonalLoop=1;jettySize=auto;html=1;exitX=0.5;exitY=0;exitDx=0;exitDy=0;entryX=0.5;entryY=1;entryDx=0;entryDy=0;" edge="1" parent="1" source="NKYCaUZf26EfjrLhenBL-52" target="NKYCaUZf26EfjrLhenBL-51">
          <mxGeometry relative="1" as="geometry" />
        </mxCell>
        <mxCell id="NKYCaUZf26EfjrLhenBL-52" value="CategoricalFee" style="ellipse;whiteSpace=wrap;html=1;aspect=fixed;" vertex="1" parent="1">
          <mxGeometry x="1870" y="230" width="80" height="80" as="geometry" />
        </mxCell>
        <mxCell id="NKYCaUZf26EfjrLhenBL-56" style="edgeStyle=orthogonalEdgeStyle;rounded=0;orthogonalLoop=1;jettySize=auto;html=1;exitX=0;exitY=0;exitDx=0;exitDy=0;entryX=0;entryY=1;entryDx=0;entryDy=0;fillColor=#d5e8d4;strokeColor=#82b366;strokeWidth=3;" edge="1" parent="1" source="NKYCaUZf26EfjrLhenBL-1" target="NKYCaUZf26EfjrLhenBL-1">
          <mxGeometry relative="1" as="geometry">
            <Array as="points">
              <mxPoint x="382" y="500" />
              <mxPoint x="300" y="500" />
              <mxPoint x="300" y="620" />
              <mxPoint x="382" y="620" />
            </Array>
          </mxGeometry>
        </mxCell>
        <mxCell id="NKYCaUZf26EfjrLhenBL-57" value="HAS_RELATION" style="edgeLabel;html=1;align=center;verticalAlign=middle;resizable=0;points=[];" vertex="1" connectable="0" parent="NKYCaUZf26EfjrLhenBL-56">
          <mxGeometry x="0.5882" y="-1" relative="1" as="geometry">
            <mxPoint as="offset" />
          </mxGeometry>
        </mxCell>
        <mxCell id="NKYCaUZf26EfjrLhenBL-91" value="1 VS n" style="edgeLabel;html=1;align=center;verticalAlign=middle;resizable=0;points=[];" vertex="1" connectable="0" parent="NKYCaUZf26EfjrLhenBL-56">
          <mxGeometry x="-0.5939" relative="1" as="geometry">
            <mxPoint as="offset" />
          </mxGeometry>
        </mxCell>
        <mxCell id="NKYCaUZf26EfjrLhenBL-59" value="Investigation" style="ellipse;whiteSpace=wrap;html=1;aspect=fixed;" vertex="1" parent="1">
          <mxGeometry x="1550" y="640" width="80" height="80" as="geometry" />
        </mxCell>
        <mxCell id="NKYCaUZf26EfjrLhenBL-64" style="edgeStyle=orthogonalEdgeStyle;rounded=0;orthogonalLoop=1;jettySize=auto;html=1;exitX=0;exitY=0.5;exitDx=0;exitDy=0;entryX=1;entryY=0.5;entryDx=0;entryDy=0;" edge="1" parent="1" source="NKYCaUZf26EfjrLhenBL-62" target="NKYCaUZf26EfjrLhenBL-63">
          <mxGeometry relative="1" as="geometry" />
        </mxCell>
        <mxCell id="NKYCaUZf26EfjrLhenBL-67" value="SUB_ORGANIZATION" style="edgeLabel;html=1;align=center;verticalAlign=middle;resizable=0;points=[];" vertex="1" connectable="0" parent="NKYCaUZf26EfjrLhenBL-64">
          <mxGeometry x="-0.06" relative="1" as="geometry">
            <mxPoint as="offset" />
          </mxGeometry>
        </mxCell>
        <mxCell id="NKYCaUZf26EfjrLhenBL-62" value="Company" style="ellipse;whiteSpace=wrap;html=1;aspect=fixed;" vertex="1" parent="1">
          <mxGeometry x="400" y="55" width="80" height="80" as="geometry" />
        </mxCell>
        <mxCell id="NKYCaUZf26EfjrLhenBL-63" value="Department" style="ellipse;whiteSpace=wrap;html=1;aspect=fixed;" vertex="1" parent="1">
          <mxGeometry x="160" y="55" width="80" height="80" as="geometry" />
        </mxCell>
        <mxCell id="NKYCaUZf26EfjrLhenBL-65" style="edgeStyle=orthogonalEdgeStyle;rounded=0;orthogonalLoop=1;jettySize=auto;html=1;exitX=1;exitY=0;exitDx=0;exitDy=0;entryX=1;entryY=1;entryDx=0;entryDy=0;" edge="1" parent="1" source="NKYCaUZf26EfjrLhenBL-62" target="NKYCaUZf26EfjrLhenBL-62">
          <mxGeometry relative="1" as="geometry">
            <Array as="points">
              <mxPoint x="468" y="35" />
              <mxPoint x="550" y="35" />
              <mxPoint x="550" y="155" />
              <mxPoint x="468" y="155" />
            </Array>
          </mxGeometry>
        </mxCell>
        <mxCell id="NKYCaUZf26EfjrLhenBL-66" value="SUB_ORGANIZATION" style="edgeLabel;html=1;align=center;verticalAlign=middle;resizable=0;points=[];" vertex="1" connectable="0" parent="NKYCaUZf26EfjrLhenBL-65">
          <mxGeometry x="0.0081" y="2" relative="1" as="geometry">
            <mxPoint x="-2" y="-2" as="offset" />
          </mxGeometry>
        </mxCell>
        <mxCell id="NKYCaUZf26EfjrLhenBL-71" style="edgeStyle=orthogonalEdgeStyle;rounded=0;orthogonalLoop=1;jettySize=auto;html=1;exitX=1;exitY=0.5;exitDx=0;exitDy=0;entryX=0.5;entryY=1;entryDx=0;entryDy=0;fillColor=#d5e8d4;strokeColor=#82b366;strokeWidth=3;" edge="1" parent="1" source="NKYCaUZf26EfjrLhenBL-70" target="NKYCaUZf26EfjrLhenBL-1">
          <mxGeometry relative="1" as="geometry" />
        </mxCell>
        <mxCell id="NKYCaUZf26EfjrLhenBL-72" value="HAS_MEMBER" style="edgeLabel;html=1;align=center;verticalAlign=middle;resizable=0;points=[];" vertex="1" connectable="0" parent="NKYCaUZf26EfjrLhenBL-71">
          <mxGeometry x="-0.2519" y="-1" relative="1" as="geometry">
            <mxPoint as="offset" />
          </mxGeometry>
        </mxCell>
        <mxCell id="NKYCaUZf26EfjrLhenBL-70" value="Family" style="ellipse;whiteSpace=wrap;html=1;aspect=fixed;" vertex="1" parent="1">
          <mxGeometry x="300" y="800" width="80" height="80" as="geometry" />
        </mxCell>
        <mxCell id="NKYCaUZf26EfjrLhenBL-75" style="edgeStyle=orthogonalEdgeStyle;rounded=0;orthogonalLoop=1;jettySize=auto;html=1;exitX=0.5;exitY=1;exitDx=0;exitDy=0;entryX=0;entryY=0.5;entryDx=0;entryDy=0;" edge="1" parent="1" source="NKYCaUZf26EfjrLhenBL-74" target="NKYCaUZf26EfjrLhenBL-16">
          <mxGeometry relative="1" as="geometry" />
        </mxCell>
        <mxCell id="NKYCaUZf26EfjrLhenBL-74" value="AppliedPolicy" style="ellipse;whiteSpace=wrap;html=1;aspect=fixed;" vertex="1" parent="1">
          <mxGeometry x="780" y="120" width="80" height="80" as="geometry" />
        </mxCell>
        <mxCell id="NKYCaUZf26EfjrLhenBL-76" value="WithdrewClaim" style="ellipse;whiteSpace=wrap;html=1;aspect=fixed;" vertex="1" parent="1">
          <mxGeometry x="1430" y="505" width="80" height="80" as="geometry" />
        </mxCell>
        <mxCell id="NKYCaUZf26EfjrLhenBL-78" value="" style="endArrow=classic;startArrow=classic;html=1;rounded=0;entryX=0;entryY=1;entryDx=0;entryDy=0;exitX=1;exitY=0;exitDx=0;exitDy=0;dashed=1;dashPattern=8 8;" edge="1" parent="1" source="NKYCaUZf26EfjrLhenBL-76" target="NKYCaUZf26EfjrLhenBL-29">
          <mxGeometry width="50" height="50" relative="1" as="geometry">
            <mxPoint x="1150" y="610" as="sourcePoint" />
            <mxPoint x="1200" y="560" as="targetPoint" />
          </mxGeometry>
        </mxCell>
        <mxCell id="NKYCaUZf26EfjrLhenBL-79" value="" style="endArrow=classic;startArrow=classic;html=1;rounded=0;entryX=1;entryY=1;entryDx=0;entryDy=0;exitX=0;exitY=0;exitDx=0;exitDy=0;dashed=1;dashPattern=8 8;" edge="1" parent="1" source="NKYCaUZf26EfjrLhenBL-16" target="NKYCaUZf26EfjrLhenBL-74">
          <mxGeometry width="50" height="50" relative="1" as="geometry">
            <mxPoint x="1328" y="527" as="sourcePoint" />
            <mxPoint x="1392" y="478" as="targetPoint" />
          </mxGeometry>
        </mxCell>
        <mxCell id="NKYCaUZf26EfjrLhenBL-87" value="Q:投保单相对保单而言，&lt;br&gt;有多少字段是可以提供的" style="edgeLabel;html=1;align=center;verticalAlign=middle;resizable=0;points=[];fontColor=#FF0000;" vertex="1" connectable="0" parent="NKYCaUZf26EfjrLhenBL-79">
          <mxGeometry x="0.1502" y="-1" relative="1" as="geometry">
            <mxPoint as="offset" />
          </mxGeometry>
        </mxCell>
        <mxCell id="NKYCaUZf26EfjrLhenBL-80" value="PolicyChange" style="ellipse;whiteSpace=wrap;html=1;aspect=fixed;fillColor=#ffe6cc;strokeColor=#d79b00;" vertex="1" parent="1">
          <mxGeometry x="950" y="980" width="80" height="80" as="geometry" />
        </mxCell>
        <mxCell id="NKYCaUZf26EfjrLhenBL-81" value="LiabilityChange" style="ellipse;whiteSpace=wrap;html=1;aspect=fixed;fillColor=#ffe6cc;strokeColor=#d79b00;" vertex="1" parent="1">
          <mxGeometry x="1090" y="980" width="80" height="80" as="geometry" />
        </mxCell>
        <mxCell id="NKYCaUZf26EfjrLhenBL-108" style="edgeStyle=orthogonalEdgeStyle;rounded=0;orthogonalLoop=1;jettySize=auto;html=1;exitX=0.5;exitY=0;exitDx=0;exitDy=0;entryX=1;entryY=0.5;entryDx=0;entryDy=0;strokeWidth=3;strokeColor=#FF0000;" edge="1" parent="1" source="NKYCaUZf26EfjrLhenBL-82" target="NKYCaUZf26EfjrLhenBL-17">
          <mxGeometry relative="1" as="geometry">
            <Array as="points">
              <mxPoint x="850" y="790" />
              <mxPoint x="1240" y="790" />
              <mxPoint x="1240" y="560" />
            </Array>
          </mxGeometry>
        </mxCell>
        <mxCell id="NKYCaUZf26EfjrLhenBL-82" value="不实告知" style="ellipse;whiteSpace=wrap;html=1;aspect=fixed;fillColor=#ffe6cc;strokeColor=#d79b00;" vertex="1" parent="1">
          <mxGeometry x="810" y="980" width="80" height="80" as="geometry" />
        </mxCell>
        <mxCell id="NKYCaUZf26EfjrLhenBL-104" style="edgeStyle=orthogonalEdgeStyle;rounded=0;orthogonalLoop=1;jettySize=auto;html=1;entryX=1;entryY=1;entryDx=0;entryDy=0;strokeWidth=3;strokeColor=#FF0000;" edge="1" parent="1" source="NKYCaUZf26EfjrLhenBL-83" target="NKYCaUZf26EfjrLhenBL-29">
          <mxGeometry relative="1" as="geometry" />
        </mxCell>
        <mxCell id="NKYCaUZf26EfjrLhenBL-105" style="edgeStyle=orthogonalEdgeStyle;rounded=0;orthogonalLoop=1;jettySize=auto;html=1;exitX=0.5;exitY=0;exitDx=0;exitDy=0;entryX=1;entryY=0.5;entryDx=0;entryDy=0;strokeWidth=3;strokeColor=#FF0000;" edge="1" parent="1" source="NKYCaUZf26EfjrLhenBL-83" target="NKYCaUZf26EfjrLhenBL-16">
          <mxGeometry relative="1" as="geometry" />
        </mxCell>
        <mxCell id="NKYCaUZf26EfjrLhenBL-106" style="edgeStyle=orthogonalEdgeStyle;rounded=0;orthogonalLoop=1;jettySize=auto;html=1;exitX=0.5;exitY=1;exitDx=0;exitDy=0;entryX=0.5;entryY=1;entryDx=0;entryDy=0;strokeWidth=3;strokeColor=#FF0000;" edge="1" parent="1" source="NKYCaUZf26EfjrLhenBL-83" target="NKYCaUZf26EfjrLhenBL-81">
          <mxGeometry relative="1" as="geometry" />
        </mxCell>
        <mxCell id="NKYCaUZf26EfjrLhenBL-107" style="edgeStyle=orthogonalEdgeStyle;rounded=0;orthogonalLoop=1;jettySize=auto;html=1;exitX=0.5;exitY=1;exitDx=0;exitDy=0;entryX=0.5;entryY=1;entryDx=0;entryDy=0;strokeWidth=3;strokeColor=#FF0000;" edge="1" parent="1" source="NKYCaUZf26EfjrLhenBL-83" target="NKYCaUZf26EfjrLhenBL-80">
          <mxGeometry relative="1" as="geometry" />
        </mxCell>
        <mxCell id="NKYCaUZf26EfjrLhenBL-83" value="核保" style="ellipse;whiteSpace=wrap;html=1;aspect=fixed;fillColor=#ffe6cc;strokeColor=#d79b00;" vertex="1" parent="1">
          <mxGeometry x="1230" y="980" width="80" height="80" as="geometry" />
        </mxCell>
        <mxCell id="NKYCaUZf26EfjrLhenBL-84" value="保全" style="text;html=1;strokeColor=none;fillColor=none;align=center;verticalAlign=middle;whiteSpace=wrap;rounded=0;" vertex="1" parent="1">
          <mxGeometry x="1030" y="1005" width="60" height="30" as="geometry" />
        </mxCell>
        <mxCell id="NKYCaUZf26EfjrLhenBL-85" value="Q: 发票是否集中在某一次就诊下" style="text;html=1;strokeColor=none;fillColor=none;align=center;verticalAlign=middle;whiteSpace=wrap;rounded=0;fontColor=#FF0000;" vertex="1" parent="1">
          <mxGeometry x="1670" y="200" width="140" height="30" as="geometry" />
        </mxCell>
        <mxCell id="NKYCaUZf26EfjrLhenBL-86" value="Q: 投被保人是否可以变更&lt;br&gt;Q：其它与当前图业务节点相关的保单变更可能&lt;br&gt;&lt;br&gt;所有的保单变更，是直接生成新的保单配置项，还是在保单配置项上进行变更？" style="text;html=1;strokeColor=none;fillColor=none;align=left;verticalAlign=middle;whiteSpace=wrap;rounded=0;fontColor=#FF0000;" vertex="1" parent="1">
          <mxGeometry x="700" y="690" width="140" height="130" as="geometry" />
        </mxCell>
        <mxCell id="NKYCaUZf26EfjrLhenBL-95" value="Q:受益人定义在保单配置里面，还是在赔案上" style="edgeLabel;html=1;align=center;verticalAlign=middle;resizable=0;points=[];fontColor=#FF0000;" vertex="1" connectable="0" parent="1">
          <mxGeometry x="660.0017466487319" y="389.9967083218748" as="geometry">
            <mxPoint x="1" y="-2" as="offset" />
          </mxGeometry>
        </mxCell>
        <mxCell id="NKYCaUZf26EfjrLhenBL-96" value="&lt;br&gt;Q: 是否所有证件类型/证件号都具有唯一性&lt;br&gt;准生证号有可能重复" style="edgeLabel;html=1;align=center;verticalAlign=middle;resizable=0;points=[];fontColor=#FF0000;" vertex="1" connectable="0" parent="1">
          <mxGeometry x="190" y="640" as="geometry" />
        </mxCell>
        <mxCell id="NKYCaUZf26EfjrLhenBL-101" value="Q: 保单配置中，特别约定导致责任与险种通用配置不符，所以直连配置，不算险种" style="text;html=1;strokeColor=none;fillColor=none;align=center;verticalAlign=middle;whiteSpace=wrap;rounded=0;fontColor=#FF0000;" vertex="1" parent="1">
          <mxGeometry x="970" y="610" width="140" height="60" as="geometry" />
        </mxCell>
        <mxCell id="NKYCaUZf26EfjrLhenBL-102" value="&lt;font color=&quot;#ff0000&quot;&gt;撤销件与其它案件字段是否完全一致？&lt;/font&gt;" style="text;html=1;align=center;verticalAlign=middle;resizable=0;points=[];autosize=1;strokeColor=none;fillColor=none;" vertex="1" parent="1">
          <mxGeometry x="1400" y="480" width="230" height="30" as="geometry" />
        </mxCell>
        <mxCell id="NKYCaUZf26EfjrLhenBL-109" style="edgeStyle=orthogonalEdgeStyle;rounded=0;orthogonalLoop=1;jettySize=auto;html=1;exitX=0.5;exitY=0;exitDx=0;exitDy=0;entryX=1;entryY=1;entryDx=0;entryDy=0;strokeWidth=3;strokeColor=#FF0000;" edge="1" parent="1" target="NKYCaUZf26EfjrLhenBL-16">
          <mxGeometry relative="1" as="geometry">
            <mxPoint x="850" y="920" as="sourcePoint" />
            <mxPoint x="1170" y="480" as="targetPoint" />
            <Array as="points">
              <mxPoint x="850" y="710" />
              <mxPoint x="1260" y="710" />
              <mxPoint x="1260" y="468" />
            </Array>
          </mxGeometry>
        </mxCell>
      </root>
    </mxGraphModel>
  </diagram>
</mxfile>
